# xmcd
#
# Track frame offsets:
#	150
#	10269
#	25713
#	37162
#	53371
#	68520
#	78574
#	94875
#	109422
#	123056
#	134175
#	143211
#	159778
#	175272
#	188486
#	199950
#	210851
#	228108
#	239432
#	251146
#
# Disc length: 3562 seconds
#
# Revision: 1
# Processed by: cddbd v1.5.2PL0 Copyright (c) Steve Scherf et al.
# Submitted via: audiograbber 1.83.01
#
DISCID=090de814
DTITLE=A Little Bit of Heaven - A Little Bit of Heaven Vol. 4
DYEAR=1900
DGENRE=Gospel
TTITLE0=Let's All Go Down To The River
TTITLE1=Thank God I Am Free
TTITLE2=Count Your Blessings
TTITLE3=Near The Cross
TTITLE4=The Old Account Settled Long Ago
TTITLE5=Wonderful Words Of Life
TTITLE6=I'll Meet You In The Morning
TTITLE7=I'll Meet You By The River
TTITLE8=(In The) Sweet By And By
TTITLE9=Jesus Loves Me
TTITLE10=I'm Living In Canaan Now
TTITLE11=I'm Bound For That City
TTITLE12=I Hold A Clear Title (To A Mansion)
TTITLE13=O Happy Day!
TTITLE14=Jesus, Hold My Hand
TTITLE15=Boundless Love
TTITLE16=Gone
TTITLE17=Nothing But The Blood (of JESUS)
TTITLE18=I Know Who Holds Tomorrow
TTITLE19=Redemption Draweth Nigh
EXTD=
EXTT0=
EXTT1=
EXTT2=
EXTT3=
EXTT4=
EXTT5=
EXTT6=
EXTT7=
EXTT8=
EXTT9=
EXTT10=
EXTT11=
EXTT12=
EXTT13=
EXTT14=
EXTT15=
EXTT16=
EXTT17=
EXTT18=
EXTT19=
PLAYORDER=
